<svg width="1398" height="681" viewBox="0 0 1398 681" fill="none" xmlns="http://www.w3.org/2000/svg">
<path d="M114.105 675.06C96.7544 672.168 94.3757 649.952 92.5005 635.575C81.962 554.78 101.635 464.715 128.509 388.982C174.18 260.272 254.242 151.189 369.639 77.0765C447.468 27.0916 561.374 -33.273 644.294 39.5784C717.471 103.869 733.47 209.009 752.815 299.085C753.494 302.247 777.371 403.905 775.91 404.13C769.369 405.136 745.286 384.496 741.889 382.525C705.033 361.145 665.123 346.134 624.428 333.852C484.617 291.657 336.627 288.901 193.075 312.247C150.401 319.187 116.931 326.724 76.3589 339.315C59.6285 344.507 14.8968 355.622 6.82594 377.558C-14.7455 436.188 211.135 416.598 224.861 415.305C396.113 399.17 565.224 365.387 736.922 352.725C870.721 342.858 1018.64 339.576 1144.68 392.955C1202.17 417.301 1246.29 456.568 1297.66 489.804C1319.86 504.169 1331.16 493.366 1346.83 475.898C1367.6 452.742 1368.69 436.67 1392.52 460.501" stroke="white" stroke-width="10" stroke-linecap="round"/>
</svg>
